# xmcd CD database file
#
# Track frame offsets:
#	150
#	29120
#	62347
#	103296
#	144804
#	185303
#
# Disc length: 3006 seconds
#
# Revision: 0
# Processed by: cddbd v1.5.2PL0 Copyright (c) Steve Scherf et al.
# Submitted via: CDex 1.70beta2
#
DISCID=4d0bbc06
DTITLE=Nicolas Jeandot - Roses de cristal
DYEAR=2007
DGENRE=New Age
TTITLE0=Eclosion
TTITLE1=Papillon vole
TTITLE2=Jardin d'hiver
TTITLE3=Perles de rosée
TTITLE4=Roses de cristal
TTITLE5=L'éveil du printemps
EXTD=YEAR: 2007
EXTT0=
EXTT1=
EXTT2=
EXTT3=
EXTT4=
EXTT5=
PLAYORDER=
